<svg 
  id="undraw_good_team_m-7-uu" 
  xmlns="http://www.w3.org/2000/svg" 
  width="402" 
  height="300" 
  viewBox="0 0 402 299.924"
>
  <defs>
    <style>
      .cls-1 {
        fill: none;
        stroke: #3f3d56;
        stroke-miterlimit: 10;
        stroke-width: 2px
      }
      .cls-2 {
        fill: #2f2e41;
      }
      .cls-4 {
        fill: #3f3d56;
      }
      .cls-5 {
        fill: #fff;
      }
      .cls-6 {
        fill: #29c44d;
      }
      .cls-7 {
        fill: #ff6584;
      }

      #Elipse_9 {
        transform: translate(75.336px, 130.17px);
        animation: moveLine 4s infinite;
      }

      @keyframes moveLine {
        15% { transform: translate(75.336px, 125.126px); }
        50% { transform: translate(176px, 125.126px); }
        70% { transform: translate(236px, 158px); }
        85% { 
          transform: translate(262px, 108px); 
          opacity: 1;
        }
        100% { 
          transform: translate(330px, 108px); 
          opacity: 0;        
        }
      }

      #Elipse_34 {
        fill: #ff6584;  
        animation: colors 8s infinite ease-out;
      }

      @keyframes colors {
        50% {
          fill: #29c44d;
        }
      }

      #Elipse_38 {
        transform: translate(161.486px, 86.941px);
        animation: move 6s ease infinite;
      }

      @keyframes move {
        30% { transform: translate(139px, 86.941px); }
        60% { transform: translate(186px, 86.941px); }
      }
    </style>
  </defs>
    <path id="Línea_1" data-name="Línea 1" class="cls-1" transform="translate(140.479 91.963)" d="M0 0h51.875"/>
    <ellipse id="Elipse_1" data-name="Elipse 1" class="cls-2" cx="14.23" cy="4.467" rx="14.23" ry="4.467" transform="rotate(-69.08 148.358 32.271)"/>
    <path id="Trazado_13" data-name="Trazado 13" d="M894.991 367.641c5.643 42-2.041 84.046-41.129 100.419a76.732 76.732 0 0 1-100.419-41.128c-16.372-39.087 22.257-62.475 41.128-100.419 38.322-77.054 82.894-89.302 100.42 41.128z" transform="translate(-494.64 -184.171)" style="fill:#f2f2f2"/>
    <ellipse id="Elipse_2" data-name="Elipse 2" class="cls-4" cx="61.241" cy="8.331" rx="61.241" ry="8.331" transform="translate(268.741 277.858)"/>
    <path id="Rectángulo_6" data-name="Rectángulo 6" class="cls-2" transform="rotate(-105.453 250.117 25.46)" d="M0 0h8.646v15.49H0z"/>
    <ellipse id="Elipse_3" data-name="Elipse 3" class="cls-2" cx="2.702" cy="7.205" rx="2.702" ry="7.205" transform="rotate(-15.453 1106.39 -917.66)"/>
    <ellipse id="Elipse_4" data-name="Elipse 4" class="cls-2" cx="14.23" cy="4.467" rx="14.23" ry="4.467" transform="rotate(-82.281 305.782 -62.132)"/>
    <circle id="Elipse_5" data-name="Elipse 5" class="cls-2" cx="28.459" cy="28.459" r="28.459" transform="translate(301.373 233.905)"/>
    <path id="Rectángulo_7" data-name="Rectángulo 7" class="cls-2" transform="rotate(-105.453 248.197 22.938)" d="M0 0h8.646v15.49H0z"/>
    <ellipse id="Elipse_6" data-name="Elipse 6" class="cls-2" cx="2.702" cy="7.205" rx="2.702" ry="7.205" transform="rotate(-15.453 1087.805 -920.18)"/>
    <circle id="Elipse_7" data-name="Elipse 7" class="cls-5" cx="9.727" cy="9.727" r="9.727" transform="translate(327.579 236.334)"/>
    <circle id="Elipse_8" data-name="Elipse 8" class="cls-4" cx="3.242" cy="3.242" r="3.242" transform="translate(337.173 238.522)"/>
    <path id="Trazado_14" data-name="Trazado 14" class="cls-6" d="M1024.333 741.509c10.531-.527 18.6-10.378 18.016-22s-9.591-20.621-20.122-20.093-12.184 8.794-11.6 20.419 3.173 22.201 13.706 21.674z" transform="translate(-661.635 -459.588)"/>
    <path id="Trazado_15" data-name="Trazado 15" class="cls-5" d="M912.9 705.6a6.484 6.484 0 0 1-1.046-12.927c3.57-.289 4.543 2.545 4.832 6.115s-.221 6.523-3.786 6.812z" transform="translate(-594.695 -455.277)"/>
    <path id="Trazado_16" data-name="Trazado 16" class="cls-1" d="M49.464 330.868h159.4l24.714 12.04 39.377 19.184 25.746-48.2h72.859" transform="translate(-31.645 -200.812)"/>
    
    <circle id="Elipse_9" data-name="Elipse 9" class="cls-6" cx="4.93" cy="4.93" r="4.93"/>
    <!-- <circle id="Elipse_10" data-name="Elipse 10" class="cls-6" cx="4.93" cy="4.93" r="4.93" transform="translate(121.35 125.126)"/>
    <circle id="Elipse_11" data-name="Elipse 11" class="cls-6" cx="4.93" cy="4.93" r="4.93" transform="translate(196.944 137.178)"/>
    <circle id="Elipse_12" data-name="Elipse 13" class="cls-6" cx="4.93" cy="4.93" r="4.93" transform="translate(251.722 127.318)"/>
    <circle id="Elipse_13" data-name="Elipse 12" class="cls-6" cx="4.93" cy="4.93" r="4.93" transform="translate(303.214 108.145)"/> -->
    

    <circle id="Elipse_14" data-name="Elipse 14" class="cls-1" cx="5.316" cy="5.316" r="5.316" transform="translate(148.715 204.144)"/>
    <ellipse id="Elipse_15" data-name="Elipse 15" class="cls-4" cx="61.241" cy="8.331" rx="61.241" ry="8.331" transform="translate(0 283.262)"/>
    <circle id="Elipse_16" data-name="Elipse 16" class="cls-2" cx="28.459" cy="28.459" r="28.459" transform="translate(29.47 222.427)"/>
    <path id="Rectángulo_8" data-name="Rectángulo 8" class="cls-2" transform="translate(44.96 273.221)" d="M0 0h8.646v15.49H0z"/>
    <path id="Rectángulo_9" data-name="Rectángulo 9" class="cls-2" transform="translate(62.252 273.221)" d="M0 0h8.646v15.49H0z"/>
    <ellipse id="Elipse_17" data-name="Elipse 17" class="cls-2" cx="7.205" cy="2.702" rx="7.205" ry="2.702" transform="translate(44.96 286.189)"/>
    <ellipse id="Elipse_18" data-name="Elipse 18" class="cls-2" cx="7.205" cy="2.702" rx="7.205" ry="2.702" transform="translate(62.252 285.829)"/>
    <circle id="Elipse_19" data-name="Elipse 19" class="cls-5" cx="9.727" cy="9.727" r="9.727" transform="translate(48.923 233.954)"/>
    <circle id="Elipse_20" data-name="Elipse 20" class="cls-4" cx="3.242" cy="3.242" r="3.242" transform="translate(55.407 240.439)"/>
    <path id="Trazado_17" data-name="Trazado 17" class="cls-6" d="M125.468 614.44c-2.3-10.291 5.048-20.69 16.407-23.227s22.431 3.75 24.728 14.041-5.23 14.087-16.589 16.623-22.248 2.855-24.546-7.437z" transform="translate(-95.146 -390.021)"/>
    <circle id="Elipse_21" data-name="Elipse 21" class="cls-2" cx="28.459" cy="28.459" r="28.459" transform="translate(19.743 140.652)"/>
    <path id="Rectángulo_10" data-name="Rectángulo 10" class="cls-2" transform="translate(35.233 191.446)" d="M0 0h8.646v15.49H0z"/>
    <path id="Rectángulo_11" data-name="Rectángulo 11" class="cls-2" transform="translate(52.525 191.446)" d="M0 0h8.646v15.49H0z"/>
    <ellipse id="Elipse_22" data-name="Elipse 22" class="cls-2" cx="7.205" cy="2.702" rx="7.205" ry="2.702" transform="translate(35.233 204.414)"/>
    <ellipse id="Elipse_23" data-name="Elipse 23" class="cls-2" cx="7.205" cy="2.702" rx="7.205" ry="2.702" transform="translate(52.525 204.054)"/>
    <circle id="Elipse_24" data-name="Elipse 24" class="cls-5" cx="9.727" cy="9.727" r="9.727" transform="translate(39.196 152.179)"/>
    <circle id="Elipse_25" data-name="Elipse 25" class="cls-4" cx="3.242" cy="3.242" r="3.242" transform="translate(45.681 158.664)"/>
    <path id="Trazado_18" data-name="Trazado 18" class="cls-6" d="M98.468 387.441c-2.3-10.291 5.048-20.69 16.407-23.227s22.431 3.75 24.728 14.041-5.23 14.087-16.589 16.623-22.248 2.854-24.546-7.437z" transform="translate(-77.872 -244.796)"/>
    <ellipse id="Elipse_26" data-name="Elipse 26" class="cls-2" cx="4.467" cy="14.23" rx="4.467" ry="14.23" transform="rotate(-64.626 122.306 75.833)"/>
    <path id="Trazado_19" data-name="Trazado 19" class="cls-5" d="M137.043 525.522c0 2.785 7.172 8.286 15.13 8.286s15.42-7.842 15.42-10.627-7.462.54-15.42.54-15.13-.984-15.13 1.801z" transform="translate(-102.82 -346.144)"/>
    <path id="Rectángulo_12" data-name="Rectángulo 12" class="cls-6" transform="translate(300.973 203.432)" d="M0 0h45.437v23.114H0z"/>
    <path id="Rectángulo_13" data-name="Rectángulo 13" class="cls-1" transform="translate(297.417 207.186)" d="M0 0h45.437v23.114H0z"/>
    <path id="Rectángulo_14" data-name="Rectángulo 14" class="cls-7" transform="translate(81.632 71.688)" d="M0 0h12.969v12.969H0z"/>
    <path id="Rectángulo_15" data-name="Rectángulo 15" class="cls-1" transform="translate(78.39 67.365)" d="M0 0h12.969v12.969H0z"/>
    <circle id="Elipse_27" data-name="Elipse 27" class="cls-2" cx="28.459" cy="28.459" r="28.459" transform="translate(297.939 39.796)"/>
    <path id="Rectángulo_16" data-name="Rectángulo 16" class="cls-2" transform="rotate(169.739 168.317 67.11)" d="M0 0h8.646v15.49H0z"/>
    <path id="Rectángulo_17" data-name="Rectángulo 17" class="cls-2" transform="rotate(169.739 159.671 67.886)" d="M0 0h8.646v15.49H0z"/>
    <ellipse id="Elipse_28" data-name="Elipse 28" class="cls-2" cx="7.205" cy="2.702" rx="7.205" ry="2.702" transform="rotate(-40.25 310.193 -375.335)"/>
    <ellipse id="Elipse_29" data-name="Elipse 29" class="cls-2" cx="7.205" cy="2.702" rx="7.205" ry="2.702" transform="rotate(-40.25 314.41 -399.579)"/>
    <circle id="Elipse_30" data-name="Elipse 30" class="cls-5" cx="9.727" cy="9.727" r="9.727" transform="translate(314.679 51.567)"/>
    <circle id="Elipse_31" data-name="Elipse 31" class="cls-4" cx="3.242" cy="3.242" r="3.242" transform="translate(317.166 54.565)"/>
    <path id="Trazado_20" data-name="Trazado 20" class="cls-6" d="M935.6 101.812c.428-10.536-8.653-19.46-20.282-19.932s-21.4 7.686-21.832 18.222 7.656 12.93 19.285 13.4 22.401-1.154 22.829-11.69z" transform="translate(-586.751 -64.517)"/>
    <ellipse id="Elipse_32" data-name="Elipse 32" class="cls-2" cx="4.467" cy="14.23" rx="4.467" ry="14.23" transform="rotate(-77.11 182.893 -146.814)"/>
    <ellipse id="Elipse_33" data-name="Elipse 33" class="cls-2" cx="4.467" cy="14.23" rx="4.467" ry="14.23" transform="rotate(-77.11 216.646 -177.211)"/>
    <path id="Trazado_21" data-name="Trazado 21" class="cls-5" d="M946.965 248.317a6.484 6.484 0 1 1-12.761 2.31c-.638-3.524 2.087-4.771 5.611-5.409s6.512-.425 7.15 3.099z" transform="translate(-612.75 -168.846)"/>
    <path id="Línea_2" data-name="Línea 2" class="cls-1" transform="translate(256.71 35.664)" d="m0 0 32.782 25.217"/>

    <circle id="Elipse_34" data-name="Elipse 34" cx="24.496" cy="24.496" r="24.496" transform="translate(216.723)"/>

    <ellipse id="Elipse_35" data-name="Elipse 35" class="cls-2" cx="14.23" cy="4.467" rx="14.23" ry="4.467" transform="rotate(-82.281 304.31 -52.637)"/>
    
    <circle id="Elipse_36" data-name="Elipse 36" class="cls-6" cx="4.93" cy="4.93" r="4.93" transform="translate(19.859 278.229)"/>
    <path id="Rectángulo_18" data-name="Rectángulo 18" class="cls-7" transform="translate(92.439 277.387)" d="M0 0h12.969v12.969H0z"/>
    <circle id="Elipse_37" data-name="Elipse 37" class="cls-6" cx="4.93" cy="4.93" r="4.93" transform="translate(87.584 281.111)"/>

    <circle id="Elipse_38" data-name="Elipse 38" class="cls-6" cx="4.93" cy="4.93" r="4.93"/>

    <circle id="Elipse_39" data-name="Elipse 39" class="cls-7" cx="2.354" cy="2.354" r="2.354" transform="translate(259.802 242.341)"/>
    <path id="Línea_3" data-name="Línea 3" transform="translate(273.69 256.965)" style="fill:#3f3d56;stroke:#3f3d56;stroke-miterlimit:10;stroke-width:2px" d="M0 26.806V0"/>
    <circle id="Elipse_40" data-name="Elipse 40" class="cls-4" cx="3.791" cy="3.791" r="3.791" transform="translate(269.899 253.175)"/>
    <path id="Trazado_22" data-name="Trazado 22" class="cls-4" d="M781.1 774.418s-.542-11.647-11.643-10.293" transform="translate(-507.415 -500.931)"/>
</svg>
