<svg 
  id="Grupo_47" 
  data-name="Grupo 47" 
  xmlns="http://www.w3.org/2000/svg" 
  width="236" 
  height="356" 
  viewBox="0 0 236.144 355.965"
>
  <defs>
    <clipPath id="clip-path">
      <path id="Rect치ngulo_25" data-name="Rect치ngulo 25" class="cls-1" d="M0 0h236.144v355.965H0z"/>
    </clipPath>
    <style>
      .cls-1{fill:#d1d1d1}
    </style>
  </defs>
  <g id="Grupo_22" data-name="Grupo 22" style="clip-path:url(#clip-path)">
    <path id="Trazado_93" data-name="Trazado 93" class="cls-1" d="M49.591 729.272v57.346a.862.862 0 0 1-.874.874h-6.008a8.359 8.359 0 0 1-6.882-3.714L8.738 741.943l.874 20.863v23.922a.861.861 0 0 1-.874.873H.874a.861.861 0 0 1-.874-.873v-57.456a.861.861 0 0 1 .874-.874h5.9a8.357 8.357 0 0 1 6.882 3.714l27.089 41.726-.873-20.863v-23.7a.861.861 0 0 1 .873-.874h7.865c.656 0 .983.328.983.874" transform="translate(0 -469.114)"/>
    <path id="Trazado_94" data-name="Trazado 94" class="cls-1" d="M349.256 787.383h-8.3a.807.807 0 0 1-.765-1.092l22.065-57.128a1.314 1.314 0 0 1 1.092-.765h10.486a1.086 1.086 0 0 1 1.093.765l22.173 57.128a.807.807 0 0 1-.765 1.092h-8.3a.821.821 0 0 1-.764-.546l-17.8-46.97a.84.84 0 0 0-1.529 0l-17.8 46.97a1.113 1.113 0 0 1-.874.546" transform="translate(-219.057 -469.114)"/>
    <path id="Trazado_95" data-name="Trazado 95" class="cls-1" d="m579.214 786.072-16.6-21.191c9.394-1.747 14.855-8.083 14.855-17.8 0-11.142-7.21-18.679-20.1-18.679H534.21a1.212 1.212 0 0 0-1.2 1.2 7.832 7.832 0 0 0 7.865 7.865h15.62c7.755 0 11.47 3.932 11.47 9.721s-3.6 9.722-11.47 9.722h-22.066a1.212 1.212 0 0 0-1.2 1.2v28.4a.862.862 0 0 0 .874.874h7.865a.862.862 0 0 0 .874-.874v-21.083h9.066l14.418 18.788a7.975 7.975 0 0 0 6.554 3.168h6.008c.437 0 .764-.765.328-1.311" transform="translate(-343.276 -469.114)"/>
    <path id="Trazado_96" data-name="Trazado 96" class="cls-1" d="M227.621 728.4h-36.592a1.032 1.032 0 0 0-1.093 1.092 8.019 8.019 0 0 0 7.974 7.974h29.711a.862.862 0 0 0 .874-.874v-7.428a.927.927 0 0 0-.874-.765m0 49.919h-27.308a.861.861 0 0 1-.874-.874V762.7a.861.861 0 0 1 .874-.874h25.232a.862.862 0 0 0 .874-.874v-7.428a.862.862 0 0 0-.874-.874h-34.407a1.213 1.213 0 0 0-1.2 1.2v32.223a1.213 1.213 0 0 0 1.2 1.2h36.483a.862.862 0 0 0 .874-.874v-7.427a.951.951 0 0 0-.874-.656" transform="translate(-122.325 -469.114)"/>
    <path id="Trazado_97" data-name="Trazado 97" class="cls-1" d="m203.585 68.728-44.814 66.506c-3.1 4.529 2.86 10.012 7.151 6.2l44.1-38.378a1.724 1.724 0 0 1 2.861 1.43v119.9a1.784 1.784 0 0 1-3.1 1.192L76.293 65.868a22.056 22.056 0 0 0-17.4-8.1h-4.769a22.84 22.84 0 0 0-22.645 22.879v168.77a22.891 22.891 0 0 0 42.431 11.918l44.814-66.506c3.1-4.529-2.861-10.013-7.151-6.2l-44.1 38.141a1.724 1.724 0 0 1-2.861-1.431V105.676a1.784 1.784 0 0 1 3.1-1.192L201.2 264.195a22.4 22.4 0 0 0 17.4 8.105h4.768a22.89 22.89 0 0 0 22.884-22.884V80.647a23.25 23.25 0 0 0-23.122-22.884 22.984 22.984 0 0 0-19.547 10.965" transform="translate(-20.274 -37.201)"/>
    <path id="Trazado_98" data-name="Trazado 98" class="cls-1" d="M232.528 0h12.658l8.708 21.219h.439L263.04 0h12.66v37.463h-9.951V15.8h-.293l-8.341 21.366h-6l-8.341-21.513h-.293v21.81h-9.951z" transform="translate(-149.756)"/>
    <path id="Trazado_99" data-name="Trazado 99" class="cls-1" d="m376.686 0 6.146 10.9h.293L389.344 0h11.341l-11.2 18.731 11.634 18.732h-11.628l-6.366-11.122h-.293l-6.366 11.122h-11.561l11.488-18.732L365.271 0z" transform="translate(-235.012)"/>
    <path id="Trazado_100" data-name="Trazado 100" class="cls-1" d="M56.748 934.975h3.3l7.76 18.955h.268l7.76-18.955h3.3v22.835H76.55v-17.35h-.223l-7.136 17.35h-2.5l-7.133-17.35h-.224v17.35h-2.586z" transform="translate(-36.547 -602.156)"/>
    <path id="Trazado_101" data-name="Trazado 101" class="cls-1" d="M179.281 944.254v-22.835h13.781v2.453h-11.016v7.716h10.3v2.453h-10.3v7.76h11.194v2.453zm5.664-25.154 2.721-5.174h3.077l-3.479 5.174z" transform="translate(-115.463 -588.6)"/>
    <path id="Trazado_102" data-name="Trazado 102" class="cls-1" d="m274 934.975 5.887 9.5h.178l5.887-9.5h3.256l-7.181 11.417 7.181 11.418h-3.258l-5.887-9.321h-.178L274 957.81h-3.256l7.359-11.418-7.359-11.417z" transform="translate(-174.367 -602.156)"/>
    <path id="Rect치ngulo_24" data-name="Rect치ngulo 24" class="cls-1" transform="translate(134.15 332.819)" d="M0 0h2.765v22.835H0z"/>
    <path id="Trazado_103" data-name="Trazado 103" class="cls-1" d="M461.031 941.547h-2.765a5.772 5.772 0 0 0-1.282-2.665 6.146 6.146 0 0 0-2.286-1.639 7.352 7.352 0 0 0-2.854-.557 6.937 6.937 0 0 0-3.752 1.048 7.237 7.237 0 0 0-2.665 3.088 13.2 13.2 0 0 0 0 10.012 7.237 7.237 0 0 0 2.665 3.089 6.938 6.938 0 0 0 3.752 1.048 7.339 7.339 0 0 0 2.854-.558 6.138 6.138 0 0 0 2.286-1.639 5.768 5.768 0 0 0 1.282-2.665h2.765a8.986 8.986 0 0 1-1.728 4.008 8.613 8.613 0 0 1-3.234 2.553 10.005 10.005 0 0 1-4.226.886 9.568 9.568 0 0 1-5.2-1.427 9.788 9.788 0 0 1-3.579-4.059 15.6 15.6 0 0 1 0-12.488 9.789 9.789 0 0 1 3.579-4.058 9.572 9.572 0 0 1 5.2-1.427 10 10 0 0 1 4.226.886 8.616 8.616 0 0 1 3.234 2.553 8.99 8.99 0 0 1 1.728 4.008" transform="translate(-284.511 -601.592)"/>
    <path id="Trazado_104" data-name="Trazado 104" class="cls-1" d="M570.17 945.827a13.913 13.913 0 0 1-1.3 6.244 9.788 9.788 0 0 1-3.579 4.059 10.172 10.172 0 0 1-10.391 0 9.792 9.792 0 0 1-3.579-4.059 15.6 15.6 0 0 1 0-12.487 9.8 9.8 0 0 1 3.579-4.059 10.172 10.172 0 0 1 10.391 0 9.793 9.793 0 0 1 3.579 4.059 13.914 13.914 0 0 1 1.3 6.244m-2.676 0a11.444 11.444 0 0 0-.986-5.006 7.239 7.239 0 0 0-2.665-3.088 7.239 7.239 0 0 0-7.5 0 7.239 7.239 0 0 0-2.665 3.088 13.2 13.2 0 0 0 0 10.013 7.239 7.239 0 0 0 2.665 3.088 7.237 7.237 0 0 0 7.5 0 7.238 7.238 0 0 0 2.665-3.088 11.442 11.442 0 0 0 .986-5.006" transform="translate(-354.227 -601.592)"/>
  </g>
</svg>
