<svg id="Grupo_807" data-name="Grupo 807" xmlns="http://www.w3.org/2000/svg" width="223.491" height="79.262" viewBox="0 0 223.491 79.262">
    <defs>
        <clipPath id="clip-path">
            <path id="Rect치ngulo_20" data-name="Rect치ngulo 20" class="cls-1" d="M0 0h223.491v79.262H0z"/>
        </clipPath>
        <style>
            .cls-1{fill:#fff}
        </style>
    </defs>
    <g id="Grupo_7" data-name="Grupo 7" style="clip-path:url(#clip-path)">
        <path id="Trazado_23" data-name="Trazado 23" class="cls-1" d="M58.025 14.195 42.916 36.617a1.607 1.607 0 0 0 2.41 2.09l14.869-12.939a.581.581 0 0 1 .965.482v40.424a.6.6 0 0 1-1.045.4l-45-53.846A7.437 7.437 0 0 0 9.242 10.5H7.635A7.7 7.7 0 0 0 0 18.213v56.9a7.717 7.717 0 0 0 14.3 4.018l15.114-22.422A1.608 1.608 0 0 0 27 54.619L12.136 67.478a.581.581 0 0 1-.964-.478V26.652a.6.6 0 0 1 1.044-.4L57.221 80.1a7.553 7.553 0 0 0 5.867 2.733h1.607a7.717 7.717 0 0 0 7.716-7.715v-56.9a7.838 7.838 0 0 0-7.8-7.715 7.747 7.747 0 0 0-6.59 3.7" transform="translate(0 -3.565)"/>
        <path id="Trazado_24" data-name="Trazado 24" class="cls-1" d="M36.538 0h4.268l2.935 7.154h.148L46.825 0h4.268v12.631h-3.355v-7.3h-.1l-2.812 7.2H42.8l-2.808-7.252h-.1v7.352h-3.354z" transform="translate(-12.41)"/>
        <path id="Trazado_25" data-name="Trazado 25" class="cls-1" d="m64.567 0 2.073 3.676h.1L68.835 0h3.824l-3.775 6.315 3.923 6.316h-3.923l-2.146-3.75h-.1l-2.146 3.75H60.6l3.873-6.316L60.719 0z" transform="translate(-20.58)"/>
        <path id="Trazado_26" data-name="Trazado 26" class="cls-1" d="M167.176 25.046v31.886a.479.479 0 0 1-.485.486h-3.341a4.649 4.649 0 0 1-3.827-2.065L144.46 32.091l.486 11.6v13.3a.479.479 0 0 1-.486.485h-4.373a.478.478 0 0 1-.485-.485V25.046a.479.479 0 0 1 .485-.486h3.28a4.648 4.648 0 0 1 3.826 2.065l15.062 23.2-.485-11.6V25.046a.479.479 0 0 1 .485-.486h4.373c.365 0 .547.182.547.486" transform="translate(-47.414 -8.341)"/>
        <path id="Trazado_27" data-name="Trazado 27" class="cls-1" d="M246.621 57.357H242a.448.448 0 0 1-.425-.607l12.268-31.766a.732.732 0 0 1 .608-.424h5.83a.6.6 0 0 1 .608.424l12.333 31.766a.448.448 0 0 1-.425.607h-4.617a.456.456 0 0 1-.425-.3l-9.9-26.116a.468.468 0 0 0-.851 0l-9.9 26.116a.618.618 0 0 1-.485.3" transform="translate(-82.038 -8.342)"/>
        <path id="Trazado_28" data-name="Trazado 28" class="cls-1" d="m325.049 56.629-9.232-11.783c5.224-.971 8.26-4.494 8.26-9.9 0-6.2-4.008-10.386-11.175-10.386h-12.877a.674.674 0 0 0-.668.668 4.355 4.355 0 0 0 4.373 4.372h8.685c4.312 0 6.378 2.186 6.378 5.406s-2 5.405-6.378 5.405h-12.268a.674.674 0 0 0-.668.668v15.793a.479.479 0 0 0 .486.486h4.373a.479.479 0 0 0 .486-.486V45.15h5.041l8.017 10.45a4.434 4.434 0 0 0 3.644 1.761h3.341c.243 0 .425-.425.182-.729" transform="translate(-101.672 -8.341)"/>
        <path id="Trazado_29" data-name="Trazado 29" class="cls-1" d="M217.484 24.56h-20.346a.574.574 0 0 0-.608.608 4.459 4.459 0 0 0 4.434 4.434h16.52a.479.479 0 0 0 .486-.486v-4.13a.515.515 0 0 0-.486-.425m0 27.756H202.3a.479.479 0 0 1-.486-.486v-8.2a.479.479 0 0 1 .486-.486h14.03a.479.479 0 0 0 .485-.486v-4.13a.479.479 0 0 0-.485-.486H197.2a.674.674 0 0 0-.668.668v17.918a.674.674 0 0 0 .668.668h20.286a.479.479 0 0 0 .486-.486v-4.13a.529.529 0 0 0-.486-.365" transform="translate(-66.748 -8.341)"/>
        <path id="Trazado_30" data-name="Trazado 30" class="cls-1" d="M151.151 86.476h2.815l3.769 9.2h.149l3.769-9.2h2.814v12.7h-2.207V90.45h-.118l-3.509 8.686h-1.649l-3.509-8.7h-.118v8.741h-2.207z" transform="translate(-51.336 -29.37)"/>
        <path id="Trazado_31" data-name="Trazado 31" class="cls-1" d="M188.328 97.072v-12.7h8.258V86.3h-5.958v3.446h5.53v1.928h-5.53v3.466h6.007v1.928zm3.272-13.949 1.389-2.834h2.194l-1.9 2.834z" transform="translate(-63.963 -27.269)"/>
        <path id="Trazado_32" data-name="Trazado 32" class="cls-1" d="m219.139 86.476 2.8 4.65h.1l2.809-4.65h2.622l-3.911 6.348 3.973 6.349h-2.665l-2.828-4.619h-.1l-2.827 4.619h-2.653l4.011-6.349-3.97-6.348z" transform="translate(-73.515 -29.37)"/>
        <path id="Rect치ngulo_19" data-name="Rect치ngulo 19" class="cls-1" transform="translate(164.482 57.106)" d="M0 0h2.3v12.697H0z"/>
        <path id="Trazado_33" data-name="Trazado 33" class="cls-1" d="M280.265 90.67h-2.319a2.7 2.7 0 0 0-1.029-1.767 3.425 3.425 0 0 0-4.537.528 6.016 6.016 0 0 0 0 6.624 3.225 3.225 0 0 0 2.539 1.138 3.276 3.276 0 0 0 1.974-.6 2.66 2.66 0 0 0 1.051-1.72l2.319.013a5 5 0 0 1-2.718 3.788 6.2 6.2 0 0 1-5.645-.19 5.429 5.429 0 0 1-2.071-2.238 8.482 8.482 0 0 1 .006-7.018 5.451 5.451 0 0 1 2.08-2.235 5.76 5.76 0 0 1 2.973-.775 6.024 6.024 0 0 1 2.551.527 4.857 4.857 0 0 1 1.888 1.522 5.089 5.089 0 0 1 .936 2.408" transform="translate(-91.387 -29.281)"/>
        <path id="Trazado_34" data-name="Trazado 34" class="cls-1" d="M313.619 92.735a7.473 7.473 0 0 1-.766 3.512 5.47 5.47 0 0 1-2.083 2.235 6.133 6.133 0 0 1-5.973 0 5.461 5.461 0 0 1-2.083-2.238 8.452 8.452 0 0 1 0-7.018 5.445 5.445 0 0 1 2.083-2.235 6.145 6.145 0 0 1 5.973 0 5.47 5.47 0 0 1 2.083 2.235 7.475 7.475 0 0 1 .766 3.512m-2.313 0a4.949 4.949 0 0 0-.983-3.314 3.386 3.386 0 0 0-5.074 0 6.057 6.057 0 0 0 0 6.625 3.381 3.381 0 0 0 5.074 0 4.951 4.951 0 0 0 .983-3.311" transform="translate(-102.553 -29.281)"/>
    </g>
</svg>
